<svg width="401" height="231" xmlns="http://www.w3.org/2000/svg" xmlns:xlink="http://www.w3.org/1999/xlink" overflow="hidden"><defs><clipPath id="clip0"><rect x="471" y="96" width="401" height="231"/></clipPath></defs><g clip-path="url(#clip0)" transform="translate(-471 -96)"><path d="M6.24671 0C6.24671 3.44999 3.44999 6.24671 0 6.24671-3.44999 6.24671-6.24671 3.44999-6.24671 0-6.24671-3.44999-3.44999-6.24671 0-6.24671 3.44999-6.24671 6.24671-3.44999 6.24671 0Z" stroke="#000000" stroke-width="1.26908" stroke-miterlimit="10" fill="none" transform="matrix(1 0 0 -1.00046 564.716 142.837)"/><path d="M6.24671 0C6.24671 3.44999 3.44999 6.24671 0 6.24671-3.44999 6.24671-6.24671 3.44999-6.24671 0-6.24671-3.44999-3.44999-6.24671 0-6.24671 3.44999-6.24671 6.24671-3.44999 6.24671 0Z" stroke="#FFFFFF" stroke-width="0.543887" stroke-miterlimit="10" fill="none" transform="matrix(1 0 0 -1.00046 564.716 142.837)"/><text font-family="Arial,Arial_MSFontService,sans-serif" font-weight="400" font-size="10" transform="matrix(0.909876 0 0 0.910292 562.449 146)">1</text><path d="M-18.4087 0-7.11693 0" stroke="#000000" stroke-width="0.362585" stroke-miterlimit="10" fill="none" transform="matrix(1 0 0 -1.00046 564.716 142.837)"/><path d="M-1.08777 1.45035C-0.997105 0.906473 0 0.0906327 0.271925 0 0-0.0906327-0.997105-0.906473-1.08777-1.45035" stroke="#000000" stroke-width="0.290059" stroke-linecap="round" stroke-linejoin="round" stroke-miterlimit="10" fill="none" transform="matrix(1 0 0 -1.00046 557.599 142.837)"/><path d="M-18.4087 0-7.11693 0" stroke="#000000" stroke-width="0.362585" stroke-miterlimit="10" fill="none" transform="matrix(1 0 0 -1.00046 564.716 142.837)"/><path d="M-1.08777 1.45035C-0.997105 0.906473 0 0.0906327 0.271925 0 0-0.0906327-0.997105-0.906473-1.08777-1.45035" stroke="#000000" stroke-width="0.290059" stroke-linecap="round" stroke-linejoin="round" stroke-miterlimit="10" fill="none" transform="matrix(1 0 0 -1.00046 557.599 142.837)"/><path d="M47.514 0C47.514 3.44999 44.7173 6.24671 41.2673 6.24671 37.8173 6.24671 35.0206 3.44999 35.0206 0 35.0206-3.44999 37.8173-6.24671 41.2673-6.24671 44.7173-6.24671 47.514-3.44999 47.514 0Z" stroke="#000000" stroke-width="1.26908" stroke-miterlimit="10" fill="none" transform="matrix(1 0 0 -1.00046 564.716 142.837)"/><path d="M47.514 0C47.514 3.44999 44.7173 6.24671 41.2673 6.24671 37.8173 6.24671 35.0206 3.44999 35.0206 0 35.0206-3.44999 37.8173-6.24671 41.2673-6.24671 44.7173-6.24671 47.514-3.44999 47.514 0Z" stroke="#FFFFFF" stroke-width="0.543887" stroke-miterlimit="10" fill="none" transform="matrix(1 0 0 -1.00046 564.716 142.837)"/><text font-family="Arial,Arial_MSFontService,sans-serif" font-weight="400" font-size="10" transform="matrix(0.909876 0 0 0.910292 603.716 146)">2</text><path d="M88.7813 0C88.7813 3.44999 85.9846 6.24671 82.5346 6.24671 79.0846 6.24671 76.2879 3.44999 76.2879 0 76.2879-3.44999 79.0846-6.24671 82.5346-6.24671 85.9846-6.24671 88.7813-3.44999 88.7813 0Z" stroke="#000000" stroke-width="1.26908" stroke-miterlimit="10" fill="none" transform="matrix(1 0 0 -1.00046 564.716 142.837)"/><path d="M88.7813 0C88.7813 3.44999 85.9846 6.24671 82.5346 6.24671 79.0846 6.24671 76.2879 3.44999 76.2879 0 76.2879-3.44999 79.0846-6.24671 82.5346-6.24671 85.9846-6.24671 88.7813-3.44999 88.7813 0Z" stroke="#FFFFFF" stroke-width="0.543887" stroke-miterlimit="10" fill="none" transform="matrix(1 0 0 -1.00046 564.716 142.837)"/><text font-family="Arial,Arial_MSFontService,sans-serif" font-weight="400" font-size="10" transform="matrix(0.909876 0 0 0.910292 644.983 146)">3</text><path d="M130.049 0C130.049 3.44999 127.252 6.24671 123.802 6.24671 120.352 6.24671 117.555 3.44999 117.555 0 117.555-3.44999 120.352-6.24671 123.802-6.24671 127.252-6.24671 130.049-3.44999 130.049 0Z" stroke="#000000" stroke-width="1.26908" stroke-miterlimit="10" fill="none" transform="matrix(1 0 0 -1.00046 564.716 142.837)"/><path d="M130.049 0C130.049 3.44999 127.252 6.24671 123.802 6.24671 120.352 6.24671 117.555 3.44999 117.555 0 117.555-3.44999 120.352-6.24671 123.802-6.24671 127.252-6.24671 130.049-3.44999 130.049 0Z" stroke="#FFFFFF" stroke-width="0.543887" stroke-miterlimit="10" fill="none" transform="matrix(1 0 0 -1.00046 564.716 142.837)"/><text font-family="Arial,Arial_MSFontService,sans-serif" font-weight="400" font-size="10" transform="matrix(0.909876 0 0 0.910292 686.249 146)">4</text><path d="M171.316 0C171.316 3.44999 168.519 6.24671 165.069 6.24671 161.619 6.24671 158.823 3.44999 158.823 0 158.823-3.44999 161.619-6.24671 165.069-6.24671 168.519-6.24671 171.316-3.44999 171.316 0Z" stroke="#000000" stroke-width="0.362585" stroke-miterlimit="10" fill="none" transform="matrix(1 0 0 -1.00046 564.716 142.837)"/><text font-family="Arial,Arial_MSFontService,sans-serif" font-weight="400" font-size="10" transform="matrix(0.909876 0 0 0.910292 727.516 146)">5</text><path d="M-1.73387 6.47166C-5.07159 18.9282 5.07159 18.9282 2.07636 7.75" stroke="#000000" stroke-width="0.362585" stroke-miterlimit="10" fill="none" transform="matrix(1 0 0 -1.00046 564.716 142.837)"/><path d="M-1.08779 1.45039C-0.997132 0.906497 0 0.0906352 0.271933 0 0-0.0906352-0.997132-0.906497-1.08779-1.45039" stroke="#000000" stroke-width="0.290067" stroke-linecap="round" stroke-linejoin="round" stroke-miterlimit="10" fill="none" transform="matrix(-0.258783 0.966346 0.965904 0.258901 566.792 135.084)"/><text font-family="Arial,Arial_MSFontService,sans-serif" font-weight="400" font-size="10" transform="matrix(0.909876 0 0 0.910292 562.77 124)">b</text><path d="M6.69995 0 34.1504 0" stroke="#000000" stroke-width="0.362585" stroke-miterlimit="10" fill="none" transform="matrix(1 0 0 -1.00046 564.716 142.837)"/><path d="M-1.08777 1.45035C-0.997105 0.906473 0 0.0906327 0.271925 0 0-0.0906327-0.997105-0.906473-1.08777-1.45035" stroke="#000000" stroke-width="0.290059" stroke-linecap="round" stroke-linejoin="round" stroke-miterlimit="10" fill="none" transform="matrix(1 0 0 -1.00046 598.866 142.837)"/><text font-family="Arial,Arial_MSFontService,sans-serif" font-weight="400" font-size="10" transform="matrix(0.909876 0 0 0.910292 582.953 140)">a</text><path d="M39.5334 6.47166C36.1957 18.9282 46.3389 18.9282 43.3437 7.75" stroke="#000000" stroke-width="0.362585" stroke-miterlimit="10" fill="none" transform="matrix(1 0 0 -1.00046 564.716 142.837)"/><path d="M-1.08779 1.45039C-0.997132 0.906497 0 0.0906352 0.271933 0 0-0.0906352-0.997132-0.906497-1.08779-1.45039" stroke="#000000" stroke-width="0.290067" stroke-linecap="round" stroke-linejoin="round" stroke-miterlimit="10" fill="none" transform="matrix(-0.258783 0.966346 0.965904 0.258901 608.059 135.084)"/><text font-family="Arial,Arial_MSFontService,sans-serif" font-weight="400" font-size="10" transform="matrix(0.909876 0 0 0.910292 603.586 124)">a</text><path d="M47.0696 3.34986C57.0874 9.13368 66.7145 9.13368 76.3713 3.55834" stroke="#000000" stroke-width="0.362585" stroke-miterlimit="10" fill="none" transform="matrix(1 0 0 -1.00046 564.716 142.837)"/><path d="M-1.08786 1.45048C-0.997196 0.906555 0 0.090641 0.27195 0 0-0.090641-0.997196-0.906555-1.08786-1.45048" stroke="#000000" stroke-width="0.290086" stroke-linecap="round" stroke-linejoin="round" stroke-miterlimit="10" fill="none" transform="matrix(0.865931 0.500163 0.499934 -0.866327 641.087 139.277)"/><text font-family="Arial,Arial_MSFontService,sans-serif" font-weight="400" font-size="10" transform="matrix(0.909876 0 0 0.910292 624.67 132)">b</text><path d="M76.7324-3.34986C66.7145-9.13368 57.0874-9.13368 47.4307-3.55834" stroke="#000000" stroke-width="0.362585" stroke-miterlimit="10" fill="none" transform="matrix(1 0 0 -1.00046 564.716 142.837)"/><path d="M-1.08786 1.45048C-0.997196 0.906555 0 0.090641 0.27195 0 0-0.090641-0.997196-0.906555-1.08786-1.45048" stroke="#000000" stroke-width="0.290086" stroke-linecap="round" stroke-linejoin="round" stroke-miterlimit="10" fill="none" transform="matrix(-0.865931 -0.500163 -0.499934 0.866327 612.146 146.397)"/><text font-family="Arial,Arial_MSFontService,sans-serif" font-weight="400" font-size="10" transform="matrix(0.909876 0 0 0.910292 624.22 147)">a</text><path d="M89.2346 0 116.685 0" stroke="#000000" stroke-width="0.362585" stroke-miterlimit="10" fill="none" transform="matrix(1 0 0 -1.00046 564.716 142.837)"/><path d="M-1.08777 1.45035C-0.997105 0.906473 0 0.0906327 0.271925 0 0-0.0906327-0.997105-0.906473-1.08777-1.45035" stroke="#000000" stroke-width="0.290059" stroke-linecap="round" stroke-linejoin="round" stroke-miterlimit="10" fill="none" transform="matrix(1 0 0 -1.00046 681.401 142.837)"/><text font-family="Arial,Arial_MSFontService,sans-serif" font-weight="400" font-size="10" transform="matrix(0.909876 0 0 0.910292 665.937 140)">b</text><path d="M118-3.34986C80.1078-25.2267 43.6942-25.2267 6.16333-3.55834" stroke="#000000" stroke-width="0.362585" stroke-miterlimit="10" fill="none" transform="matrix(1 0 0 -1.00046 564.716 142.837)"/><path d="M-1.08786 1.45048C-0.997196 0.906555 0 0.090641 0.27195 0 0-0.090641-0.997196-0.906555-1.08786-1.45048" stroke="#000000" stroke-width="0.290086" stroke-linecap="round" stroke-linejoin="round" stroke-miterlimit="10" fill="none" transform="matrix(-0.865931 -0.500163 -0.499934 0.866327 570.879 146.397)"/><text font-family="Arial,Arial_MSFontService,sans-serif" font-weight="400" font-size="10" transform="matrix(0.909876 0 0 0.910292 671.771 163)">b</text><path d="M130.502 0 158.224 0" stroke="#000000" stroke-width="0.362585" stroke-miterlimit="10" fill="none" transform="matrix(1 0 0 -1.00046 564.716 142.837)"/><path d="M-1.08777 1.45035C-0.997105 0.906473 0 0.0906327 0.271925 0 0-0.0906327-0.997105-0.906473-1.08777-1.45035" stroke="#000000" stroke-width="0.290059" stroke-linecap="round" stroke-linejoin="round" stroke-miterlimit="10" fill="none" transform="matrix(1 0 0 -1.00046 722.94 142.837)"/><text font-family="Arial,Arial_MSFontService,sans-serif" font-weight="400" font-size="10" transform="matrix(0.909876 0 0 0.910292 706.889 140)">a</text><path d="M163.406 6.20887C160.068 18.6655 170.071 18.6655 167.075 7.48723" stroke="#000000" stroke-width="0.362585" stroke-miterlimit="10" fill="none" transform="matrix(1 0 0 -1.00046 564.716 142.837)"/><path d="M-1.08779 1.45039C-0.997132 0.906497 0 0.0906352 0.271933 0 0-0.0906352-0.997132-0.906497-1.08779-1.45039" stroke="#000000" stroke-width="0.290067" stroke-linecap="round" stroke-linejoin="round" stroke-miterlimit="10" fill="none" transform="matrix(-0.258783 0.966346 0.965904 0.258901 731.791 135.347)"/><text font-family="Arial,Arial_MSFontService,sans-serif" font-weight="400" font-size="10" transform="matrix(0.909876 0 0 0.910292 723.427 122)">a<tspan font-size="10" x="5.26624" y="0">,</tspan><tspan font-size="10" x="9.6976" y="0">b</tspan><tspan font-size="10" x="-131.902" y="69.2086">F</tspan><tspan font-size="10" x="-125.398" y="69.2086">i</tspan><tspan font-size="10" x="-122.631" y="69.2086">g</tspan><tspan font-size="10" x="-117.65" y="69.2086">u</tspan><tspan font-size="10" x="-112.114" y="69.2086">r</tspan><tspan font-size="10" x="-108.212" y="69.2086">e</tspan><tspan font-size="10" x="-100.467" y="69.2086">1</tspan><tspan font-size="10" x="-95.4857" y="69.2086">:</tspan><tspan font-size="10" x="-88.2847" y="69.2086">S</tspan><tspan font-size="10" x="-82.7495" y="69.2086">o</tspan><tspan font-size="10" x="-77.7682" y="69.2086">l</tspan><tspan font-size="10" x="-75.0006" y="69.2086">u</tspan><tspan font-size="10" x="-69.4654" y="69.2086">t</tspan><tspan font-size="10" x="-65.5909" y="69.2086">i</tspan><tspan font-size="10" x="-62.8234" y="69.2086">o</tspan><tspan font-size="10" x="-57.842" y="69.2086">n</tspan></text><path d="M6.24671 0C6.24671 3.44999 3.44999 6.24671 0 6.24671-3.44999 6.24671-6.24671 3.44999-6.24671 0-6.24671-3.44999-3.44999-6.24671 0-6.24671 3.44999-6.24671 6.24671-3.44999 6.24671 0Z" stroke="#000000" stroke-width="0.362585" stroke-miterlimit="10" fill="none" transform="matrix(1 0 0 -1.00046 510.636 239.82)"/><text font-family="Arial,Arial_MSFontService,sans-serif" font-weight="400" font-size="10" transform="matrix(0.909876 0 0 0.910292 508.37 243)">1</text><path d="M-18.1368 0-6.84498 0" stroke="#000000" stroke-width="0.362585" stroke-miterlimit="10" fill="none" transform="matrix(1 0 0 -1.00046 510.636 239.82)"/><path d="M-1.08777 1.45035C-0.997105 0.906473 0 0.0906327 0.271925 0 0-0.0906327-0.997105-0.906473-1.08777-1.45035" stroke="#000000" stroke-width="0.290059" stroke-linecap="round" stroke-linejoin="round" stroke-miterlimit="10" fill="none" transform="matrix(1 0 0 -1.00046 503.791 239.82)"/><path d="M-18.1368 0-6.84498 0" stroke="#000000" stroke-width="0.362585" stroke-miterlimit="10" fill="none" transform="matrix(1 0 0 -1.00046 510.636 239.82)"/><path d="M-1.08777 1.45035C-0.997105 0.906473 0 0.0906327 0.271925 0 0-0.0906327-0.997105-0.906473-1.08777-1.45035" stroke="#000000" stroke-width="0.290059" stroke-linecap="round" stroke-linejoin="round" stroke-miterlimit="10" fill="none" transform="matrix(1 0 0 -1.00046 503.791 239.82)"/><path d="M47.514 0C47.514 3.44999 44.7173 6.24671 41.2673 6.24671 37.8173 6.24671 35.0206 3.44999 35.0206 0 35.0206-3.44999 37.8173-6.24671 41.2673-6.24671 44.7173-6.24671 47.514-3.44999 47.514 0Z" stroke="#000000" stroke-width="1.26908" stroke-miterlimit="10" fill="none" transform="matrix(1 0 0 -1.00046 510.636 239.82)"/><path d="M47.514 0C47.514 3.44999 44.7173 6.24671 41.2673 6.24671 37.8173 6.24671 35.0206 3.44999 35.0206 0 35.0206-3.44999 37.8173-6.24671 41.2673-6.24671 44.7173-6.24671 47.514-3.44999 47.514 0Z" stroke="#FFFFFF" stroke-width="0.543887" stroke-miterlimit="10" fill="none" transform="matrix(1 0 0 -1.00046 510.636 239.82)"/><text font-family="Arial,Arial_MSFontService,sans-serif" font-weight="400" font-size="10" transform="matrix(0.909876 0 0 0.910292 549.636 243)">2</text><path d="M88.7813 0C88.7813 3.44999 85.9846 6.24671 82.5346 6.24671 79.0846 6.24671 76.2879 3.44999 76.2879 0 76.2879-3.44999 79.0846-6.24671 82.5346-6.24671 85.9846-6.24671 88.7813-3.44999 88.7813 0Z" stroke="#000000" stroke-width="1.26908" stroke-miterlimit="10" fill="none" transform="matrix(1 0 0 -1.00046 510.636 239.82)"/><path d="M88.7813 0C88.7813 3.44999 85.9846 6.24671 82.5346 6.24671 79.0846 6.24671 76.2879 3.44999 76.2879 0 76.2879-3.44999 79.0846-6.24671 82.5346-6.24671 85.9846-6.24671 88.7813-3.44999 88.7813 0Z" stroke="#FFFFFF" stroke-width="0.543887" stroke-miterlimit="10" fill="none" transform="matrix(1 0 0 -1.00046 510.636 239.82)"/><text font-family="Arial,Arial_MSFontService,sans-serif" font-weight="400" font-size="10" transform="matrix(0.909876 0 0 0.910292 590.904 243)">3</text><path d="M130.049 0C130.049 3.44999 127.252 6.24671 123.802 6.24671 120.352 6.24671 117.555 3.44999 117.555 0 117.555-3.44999 120.352-6.24671 123.802-6.24671 127.252-6.24671 130.049-3.44999 130.049 0Z" stroke="#000000" stroke-width="1.26908" stroke-miterlimit="10" fill="none" transform="matrix(1 0 0 -1.00046 510.636 239.82)"/><path d="M130.049 0C130.049 3.44999 127.252 6.24671 123.802 6.24671 120.352 6.24671 117.555 3.44999 117.555 0 117.555-3.44999 120.352-6.24671 123.802-6.24671 127.252-6.24671 130.049-3.44999 130.049 0Z" stroke="#FFFFFF" stroke-width="0.543887" stroke-miterlimit="10" fill="none" transform="matrix(1 0 0 -1.00046 510.636 239.82)"/><text font-family="Arial,Arial_MSFontService,sans-serif" font-weight="400" font-size="10" transform="matrix(0.909876 0 0 0.910292 632.17 243)">4</text><path d="M171.316 0C171.316 3.44999 168.519 6.24671 165.069 6.24671 161.619 6.24671 158.823 3.44999 158.823 0 158.823-3.44999 161.619-6.24671 165.069-6.24671 168.519-6.24671 171.316-3.44999 171.316 0Z" stroke="#000000" stroke-width="0.362585" stroke-miterlimit="10" fill="none" transform="matrix(1 0 0 -1.00046 510.636 239.82)"/><text font-family="Arial,Arial_MSFontService,sans-serif" font-weight="400" font-size="10" transform="matrix(0.909876 0 0 0.910292 673.437 243)">5</text><path d="M-1.66349 6.20887C-5.00122 18.6655 5.00122 18.6655 2.00598 7.48723" stroke="#000000" stroke-width="0.362585" stroke-miterlimit="10" fill="none" transform="matrix(1 0 0 -1.00046 510.636 239.82)"/><path d="M-1.08779 1.45039C-0.997132 0.906497 0 0.0906352 0.271933 0 0-0.0906352-0.997132-0.906497-1.08779-1.45039" stroke="#000000" stroke-width="0.290067" stroke-linecap="round" stroke-linejoin="round" stroke-miterlimit="10" fill="none" transform="matrix(-0.258783 0.966346 0.965904 0.258901 512.642 232.329)"/><text font-family="Arial,Arial_MSFontService,sans-serif" font-weight="400" font-size="10" transform="matrix(0.909876 0 0 0.910292 508.691 221)">b</text><path d="M6.428 0 34.1504 0" stroke="#000000" stroke-width="0.362585" stroke-miterlimit="10" fill="none" transform="matrix(1 0 0 -1.00046 510.636 239.82)"/><path d="M-1.08777 1.45035C-0.997105 0.906473 0 0.0906327 0.271925 0 0-0.0906327-0.997105-0.906473-1.08777-1.45035" stroke="#000000" stroke-width="0.290059" stroke-linecap="round" stroke-linejoin="round" stroke-miterlimit="10" fill="none" transform="matrix(1 0 0 -1.00046 544.786 239.82)"/><text font-family="Arial,Arial_MSFontService,sans-serif" font-weight="400" font-size="10" transform="matrix(0.909876 0 0 0.910292 528.737 237)">a</text><path d="M39.5334 6.47166C36.1957 18.9282 46.3389 18.9282 43.3437 7.75" stroke="#000000" stroke-width="0.362585" stroke-miterlimit="10" fill="none" transform="matrix(1 0 0 -1.00046 510.636 239.82)"/><path d="M-1.08779 1.45039C-0.997132 0.906497 0 0.0906352 0.271933 0 0-0.0906352-0.997132-0.906497-1.08779-1.45039" stroke="#000000" stroke-width="0.290067" stroke-linecap="round" stroke-linejoin="round" stroke-miterlimit="10" fill="none" transform="matrix(-0.258783 0.966346 0.965904 0.258901 553.98 232.066)"/><text font-family="Arial,Arial_MSFontService,sans-serif" font-weight="400" font-size="10" transform="matrix(0.909876 0 0 0.910292 549.507 221)">a</text><path d="M47.0696 3.34986C57.0874 9.13368 66.7145 9.13368 76.3713 3.55834" stroke="#000000" stroke-width="0.362585" stroke-miterlimit="10" fill="none" transform="matrix(1 0 0 -1.00046 510.636 239.82)"/><path d="M-1.08786 1.45048C-0.997196 0.906555 0 0.090641 0.27195 0 0-0.090641-0.997196-0.906555-1.08786-1.45048" stroke="#000000" stroke-width="0.290086" stroke-linecap="round" stroke-linejoin="round" stroke-miterlimit="10" fill="none" transform="matrix(0.865931 0.500163 0.499934 -0.866327 587.007 236.26)"/><text font-family="Arial,Arial_MSFontService,sans-serif" font-weight="400" font-size="10" transform="matrix(0.909876 0 0 0.910292 570.591 229)">b</text><path d="M76.7324-3.34986C66.7145-9.13368 57.0874-9.13368 47.4307-3.55834" stroke="#000000" stroke-width="0.362585" stroke-miterlimit="10" fill="none" transform="matrix(1 0 0 -1.00046 510.636 239.82)"/><path d="M-1.08786 1.45048C-0.997196 0.906555 0 0.090641 0.27195 0 0-0.090641-0.997196-0.906555-1.08786-1.45048" stroke="#000000" stroke-width="0.290086" stroke-linecap="round" stroke-linejoin="round" stroke-miterlimit="10" fill="none" transform="matrix(-0.865931 -0.500163 -0.499934 0.866327 558.067 243.38)"/><text font-family="Arial,Arial_MSFontService,sans-serif" font-weight="400" font-size="10" transform="matrix(0.909876 0 0 0.910292 570.14 244)">a</text><path d="M89.2346 0 116.685 0" stroke="#000000" stroke-width="0.362585" stroke-miterlimit="10" fill="none" transform="matrix(1 0 0 -1.00046 510.636 239.82)"/><path d="M-1.08777 1.45035C-0.997105 0.906473 0 0.0906327 0.271925 0 0-0.0906327-0.997105-0.906473-1.08777-1.45035" stroke="#000000" stroke-width="0.290059" stroke-linecap="round" stroke-linejoin="round" stroke-miterlimit="10" fill="none" transform="matrix(1 0 0 -1.00046 627.321 239.82)"/><text font-family="Arial,Arial_MSFontService,sans-serif" font-weight="400" font-size="10" transform="matrix(0.909876 0 0 0.910292 611.858 237)">b</text><path d="M118-3.34986C80.0027-25.2271 43.5115-25.1815 5.92757-3.4228" stroke="#000000" stroke-width="0.362585" stroke-miterlimit="10" fill="none" transform="matrix(1 0 0 -1.00046 510.636 239.82)"/><path d="M-1.08786 1.45048C-0.997196 0.906555 0 0.090641 0.27195 0 0-0.090641-0.997196-0.906555-1.08786-1.45048" stroke="#000000" stroke-width="0.290086" stroke-linecap="round" stroke-linejoin="round" stroke-miterlimit="10" fill="none" transform="matrix(-0.865341 -0.501184 -0.500954 0.865737 516.564 243.244)"/><text font-family="Arial,Arial_MSFontService,sans-serif" font-weight="400" font-size="10" transform="matrix(0.909876 0 0 0.910292 617.653 260)">b</text><path d="M130.502 0 158.224 0" stroke="#000000" stroke-width="0.362585" stroke-miterlimit="10" fill="none" transform="matrix(1 0 0 -1.00046 510.636 239.82)"/><path d="M-1.08777 1.45035C-0.997105 0.906473 0 0.0906327 0.271925 0 0-0.0906327-0.997105-0.906473-1.08777-1.45035" stroke="#000000" stroke-width="0.290059" stroke-linecap="round" stroke-linejoin="round" stroke-miterlimit="10" fill="none" transform="matrix(1 0 0 -1.00046 668.86 239.82)"/><text font-family="Arial,Arial_MSFontService,sans-serif" font-weight="400" font-size="10" transform="matrix(0.909876 0 0 0.910292 652.81 237)">a</text><path d="M163.406 6.20887C160.068 18.6655 170.071 18.6655 167.075 7.48723" stroke="#000000" stroke-width="0.362585" stroke-miterlimit="10" fill="none" transform="matrix(1 0 0 -1.00046 510.636 239.82)"/><path d="M-1.08779 1.45039C-0.997132 0.906497 0 0.0906352 0.271933 0 0-0.0906352-0.997132-0.906497-1.08779-1.45039" stroke="#000000" stroke-width="0.290067" stroke-linecap="round" stroke-linejoin="round" stroke-miterlimit="10" fill="none" transform="matrix(-0.258783 0.966346 0.965904 0.258901 677.711 232.329)"/><text font-family="Arial,Arial_MSFontService,sans-serif" font-weight="400" font-size="10" transform="matrix(0.909876 0 0 0.910292 669.348 219)">a<tspan font-size="10" x="5.26618" y="0">,</tspan><tspan font-size="10" x="9.6976" y="0">b</tspan><tspan font-size="8" x="-97.368" y="61.5187">(</tspan><tspan font-size="8" x="-94.0748" y="61.5187">a</tspan><tspan font-size="8" x="-89.8403" y="61.5187">)</tspan></text><path d="M6.24671 0C6.24671 3.44999 3.44999 6.24671 0 6.24671-3.44999 6.24671-6.24671 3.44999-6.24671 0-6.24671-3.44999-3.44999-6.24671 0-6.24671 3.44999-6.24671 6.24671-3.44999 6.24671 0Z" stroke="#000000" stroke-width="1.26908" stroke-miterlimit="10" fill="none" transform="matrix(1 0 0 -1.00046 715.755 255.898)"/><path d="M6.24671 0C6.24671 3.44999 3.44999 6.24671 0 6.24671-3.44999 6.24671-6.24671 3.44999-6.24671 0-6.24671-3.44999-3.44999-6.24671 0-6.24671 3.44999-6.24671 6.24671-3.44999 6.24671 0Z" stroke="#FFFFFF" stroke-width="0.543887" stroke-miterlimit="10" fill="none" transform="matrix(1 0 0 -1.00046 715.755 255.898)"/><text font-family="Arial,Arial_MSFontService,sans-serif" font-weight="400" font-size="10" transform="matrix(0.909876 0 0 0.910292 713.488 259)">1</text><path d="M-18.4087 0-7.11693 0" stroke="#000000" stroke-width="0.362585" stroke-miterlimit="10" fill="none" transform="matrix(1 0 0 -1.00046 715.755 255.898)"/><path d="M-1.08777 1.45035C-0.997105 0.906473 0 0.0906327 0.271925 0 0-0.0906327-0.997105-0.906473-1.08777-1.45035" stroke="#000000" stroke-width="0.290059" stroke-linecap="round" stroke-linejoin="round" stroke-miterlimit="10" fill="none" transform="matrix(1 0 0 -1.00046 708.638 255.898)"/><path d="M-18.4087 0-7.11693 0" stroke="#000000" stroke-width="0.362585" stroke-miterlimit="10" fill="none" transform="matrix(1 0 0 -1.00046 715.755 255.898)"/><path d="M-1.08777 1.45035C-0.997105 0.906473 0 0.0906327 0.271925 0 0-0.0906327-0.997105-0.906473-1.08777-1.45035" stroke="#000000" stroke-width="0.290059" stroke-linecap="round" stroke-linejoin="round" stroke-miterlimit="10" fill="none" transform="matrix(1 0 0 -1.00046 708.638 255.898)"/><path d="M47.514 0C47.514 3.44999 44.7173 6.24671 41.2673 6.24671 37.8173 6.24671 35.0206 3.44999 35.0206 0 35.0206-3.44999 37.8173-6.24671 41.2673-6.24671 44.7173-6.24671 47.514-3.44999 47.514 0Z" stroke="#000000" stroke-width="0.362585" stroke-miterlimit="10" fill="none" transform="matrix(1 0 0 -1.00046 715.755 255.898)"/><text font-family="Arial,Arial_MSFontService,sans-serif" font-weight="400" font-size="10" transform="matrix(0.909876 0 0 0.910292 754.756 259)">2</text><path d="M88.7813 0C88.7813 3.44999 85.9846 6.24671 82.5346 6.24671 79.0846 6.24671 76.2879 3.44999 76.2879 0 76.2879-3.44999 79.0846-6.24671 82.5346-6.24671 85.9846-6.24671 88.7813-3.44999 88.7813 0Z" stroke="#000000" stroke-width="0.362585" stroke-miterlimit="10" fill="none" transform="matrix(1 0 0 -1.00046 715.755 255.898)"/><text font-family="Arial,Arial_MSFontService,sans-serif" font-weight="400" font-size="10" transform="matrix(0.909876 0 0 0.910292 796.022 259)">3</text><path d="M130.049 0C130.049 3.44999 127.252 6.24671 123.802 6.24671 120.352 6.24671 117.555 3.44999 117.555 0 117.555-3.44999 120.352-6.24671 123.802-6.24671 127.252-6.24671 130.049-3.44999 130.049 0Z" stroke="#000000" stroke-width="0.362585" stroke-miterlimit="10" fill="none" transform="matrix(1 0 0 -1.00046 715.755 255.898)"/><text font-family="Arial,Arial_MSFontService,sans-serif" font-weight="400" font-size="10" transform="matrix(0.909876 0 0 0.910292 837.289 259)">4</text><path d="M-1.73387 6.47166C-5.07159 18.9282 5.07159 18.9282 2.07636 7.75" stroke="#000000" stroke-width="0.362585" stroke-miterlimit="10" fill="none" transform="matrix(1 0 0 -1.00046 715.755 255.898)"/><path d="M-1.08779 1.45039C-0.997132 0.906497 0 0.0906352 0.271933 0 0-0.0906352-0.997132-0.906497-1.08779-1.45039" stroke="#000000" stroke-width="0.290067" stroke-linecap="round" stroke-linejoin="round" stroke-miterlimit="10" fill="none" transform="matrix(-0.258783 0.966346 0.965904 0.258901 717.831 248.145)"/><text font-family="Arial,Arial_MSFontService,sans-serif" font-weight="400" font-size="10" transform="matrix(0.909876 0 0 0.910292 713.359 237)">a</text><path d="M5.80223 3.34986C15.9652 9.15597 25.5909 9.11219 35.3405 3.424" stroke="#000000" stroke-width="0.362585" stroke-miterlimit="10" fill="none" transform="matrix(1 0 0 -1.00046 715.755 255.898)"/><path d="M-1.08783 1.45044C-0.997168 0.906529 0 0.0906384 0.271942 0 0-0.0906384-0.997168-0.906529-1.08783-1.45044" stroke="#000000" stroke-width="0.290077" stroke-linecap="round" stroke-linejoin="round" stroke-miterlimit="10" fill="none" transform="matrix(0.863646 0.504099 0.503868 -0.864041 751.095 252.473)"/><text font-family="Arial,Arial_MSFontService,sans-serif" font-weight="400" font-size="10" transform="matrix(0.909876 0 0 0.910292 734.581 245)">b</text><path d="M35.7006-3.21389C25.5909-9.11219 15.9652-9.15597 6.16426-3.55668" stroke="#000000" stroke-width="0.362585" stroke-miterlimit="10" fill="none" transform="matrix(1 0 0 -1.00046 715.755 255.898)"/><path d="M-1.08784 1.45045C-0.997173 0.906535 0 0.0906389 0.271944 0 0-0.0906389-0.997173-0.906535-1.08784-1.45045" stroke="#000000" stroke-width="0.290079" stroke-linecap="round" stroke-linejoin="round" stroke-miterlimit="10" fill="none" transform="matrix(-0.868201 -0.496213 -0.495986 0.868598 721.919 259.457)"/><text font-family="Arial,Arial_MSFontService,sans-serif" font-weight="400" font-size="10" transform="matrix(0.909876 0 0 0.910292 734.13 260)">a</text><path d="M76.9679-3.21389C66.7909-9.08955 57.011-9.08955 47.1951-3.42236" stroke="#000000" stroke-width="0.362585" stroke-miterlimit="10" fill="none" transform="matrix(1 0 0 -1.00046 715.755 255.898)"/><path d="M-1.08786 1.45048C-0.997196 0.906555 0 0.090641 0.27195 0 0-0.090641-0.997196-0.906555-1.08786-1.45048" stroke="#000000" stroke-width="0.290086" stroke-linecap="round" stroke-linejoin="round" stroke-miterlimit="10" fill="none" transform="matrix(-0.865931 -0.500163 -0.499934 0.866327 762.95 259.322)"/><text font-family="Arial,Arial_MSFontService,sans-serif" font-weight="400" font-size="10" transform="matrix(0.909876 0 0 0.910292 775.71 260)">b</text><path d="M46.834 3.21389C57.011 9.08955 66.7909 9.08955 76.6068 3.42236" stroke="#000000" stroke-width="0.362585" stroke-miterlimit="10" fill="none" transform="matrix(1 0 0 -1.00046 715.755 255.898)"/><path d="M-1.08786 1.45048C-0.997196 0.906555 0 0.090641 0.27195 0 0-0.090641-0.997196-0.906555-1.08786-1.45048" stroke="#000000" stroke-width="0.290086" stroke-linecap="round" stroke-linejoin="round" stroke-miterlimit="10" fill="none" transform="matrix(0.865931 0.500163 0.499934 -0.866327 792.362 252.474)"/><text font-family="Arial,Arial_MSFontService,sans-serif" font-weight="400" font-size="10" transform="matrix(0.909876 0 0 0.910292 775.71 245)">b</text><path d="M88.9626 0 116.957 0" stroke="#000000" stroke-width="0.362585" stroke-miterlimit="10" fill="none" transform="matrix(1 0 0 -1.00046 715.755 255.898)"/><path d="M-1.08777 1.45035C-0.997105 0.906473 0 0.0906327 0.271925 0 0-0.0906327-0.997105-0.906473-1.08777-1.45035" stroke="#000000" stroke-width="0.290059" stroke-linecap="round" stroke-linejoin="round" stroke-miterlimit="10" fill="none" transform="matrix(1 0 0 -1.00046 832.712 255.898)"/><text font-family="Arial,Arial_MSFontService,sans-serif" font-weight="400" font-size="10" transform="matrix(0.909876 0 0 0.910292 816.526 253)">a</text><path d="M122.138 6.20887C118.801 18.6655 128.803 18.6655 125.808 7.48723" stroke="#000000" stroke-width="0.362585" stroke-miterlimit="10" fill="none" transform="matrix(1 0 0 -1.00046 715.755 255.898)"/><path d="M-1.08779 1.45039C-0.997132 0.906497 0 0.0906352 0.271933 0 0-0.0906352-0.997132-0.906497-1.08779-1.45039" stroke="#000000" stroke-width="0.290067" stroke-linecap="round" stroke-linejoin="round" stroke-miterlimit="10" fill="none" transform="matrix(-0.258783 0.966346 0.965904 0.258901 841.563 248.408)"/><text font-family="Arial,Arial_MSFontService,sans-serif" font-weight="400" font-size="10" transform="matrix(0.909876 0 0 0.910292 833.2 235)">a<tspan font-size="10" x="5.26624" y="0">,</tspan><tspan font-size="10" x="9.6976" y="0">b</tspan><tspan font-size="8" x="-75.076" y="43.9419">(</tspan><tspan font-size="8" x="-71.7827" y="43.9419">b</tspan><tspan font-size="8" x="-67.078" y="43.9419">)</tspan><tspan font-size="10" x="-310.941" y="64.8144">F</tspan><tspan font-size="10" x="-304.437" y="64.8144">i</tspan><tspan font-size="10" x="-301.67" y="64.8144">g</tspan><tspan font-size="10" x="-296.688" y="64.8144">u</tspan><tspan font-size="10" x="-291.153" y="64.8144">r</tspan><tspan font-size="10" x="-287.251" y="64.8144">e</tspan><tspan font-size="10" x="-279.506" y="64.8144">2</tspan><tspan font-size="10" x="-274.525" y="64.8144">:</tspan><tspan font-size="10" x="-267.324" y="64.8144">(</tspan><tspan font-size="10" x="-263.449" y="64.8144">a</tspan><tspan font-size="10" x="-258.468" y="64.8144">)</tspan><tspan font-size="10" x="-251.276" y="64.8144">=</tspan><tspan font-size="10" x="-240.21" y="64.8144">A</tspan><tspan font-size="10" x="-232.738" y="64.8144">u</tspan><tspan font-size="10" x="-227.202" y="64.8144">t</tspan><tspan font-size="10" x="-223.328" y="64.8144">o</tspan><tspan font-size="10" x="-218.347" y="64.8144">m</tspan><tspan font-size="10" x="-210.045" y="64.8144">a</tspan><tspan font-size="10" x="-205.063" y="64.8144">t</tspan><tspan font-size="10" x="-197.862" y="64.8144">1</tspan><tspan font-size="10" x="-189.563" y="64.8144">(</tspan><tspan font-size="10" x="-185.688" y="64.8144">b</tspan><tspan font-size="10" x="-180.153" y="64.8144">)</tspan><tspan font-size="10" x="-172.961" y="64.8144">=</tspan><tspan font-size="10" x="-161.885" y="64.8144">A</tspan><tspan font-size="10" x="-154.413" y="64.8144">u</tspan><tspan font-size="10" x="-148.877" y="64.8144">t</tspan><tspan font-size="10" x="-145.003" y="64.8144">o</tspan><tspan font-size="10" x="-140.022" y="64.8144">m</tspan><tspan font-size="10" x="-131.72" y="64.8144">a</tspan><tspan font-size="10" x="-126.738" y="64.8144">t</tspan><tspan font-size="10" x="-119.546" y="64.8144">2</tspan><tspan font-size="10" x="-257.806" y="76.8984">S</tspan><tspan font-size="10" x="-252.271" y="76.8984">t</tspan><tspan font-size="10" x="-248.396" y="76.8984">u</tspan><tspan font-size="10" x="-242.861" y="76.8984">d</tspan><tspan font-size="10" x="-237.326" y="76.8984">e</tspan><tspan font-size="10" x="-232.898" y="76.8984">n</tspan><tspan font-size="10" x="-227.642" y="76.8984">t</tspan><tspan font-size="10" x="-220.45" y="76.8984">S</tspan><tspan font-size="10" x="-214.915" y="76.8984">u</tspan><tspan font-size="10" x="-209.38" y="76.8984">b</tspan><tspan font-size="10" x="-203.845" y="76.8984">m</tspan><tspan font-size="10" x="-195.543" y="76.8984">i</tspan><tspan font-size="10" x="-192.775" y="76.8984">s</tspan><tspan font-size="10" x="-188.846" y="76.8984">s</tspan><tspan font-size="10" x="-184.917" y="76.8984">i</tspan><tspan font-size="10" x="-182.149" y="76.8984">o</tspan><tspan font-size="10" x="-177.168" y="76.8984">n</tspan><tspan font-size="10" x="-171.632" y="76.8984">s</tspan><tspan font-size="10" x="-215.244" y="443.814">1</tspan></text></g></svg>